<svg xmlns="http://www.w3.org/2000/svg" viewBox="0 0 48 48">
  <defs>
    <linearGradient id="grad" x1="0%" y1="0%" x2="100%" y2="100%">
      <stop offset="0%" style="stop-color:#3b82f6;stop-opacity:1" />
      <stop offset="100%" style="stop-color:#2563eb;stop-opacity:1" />
    </linearGradient>
  </defs>
  
  <!-- Base -->
  <rect x="20" y="38" width="8" height="3" rx="1" fill="url(#grad)"/>
  
  <!-- Haste -->
  <rect x="22.5" y="14" width="3" height="24" rx="1.5" fill="url(#grad)"/>
  
  <!-- Barra -->
  <rect x="8" y="14" width="32" height="2.5" rx="1.25" fill="url(#grad)"/>
  
  <!-- Prato esquerdo -->
  <path d="M 8 16 L 14 22 L 14 24 L 2 24 L 2 22 Z" fill="#60a5fa" opacity="0.8"/>
  <ellipse cx="8" cy="24" rx="6" ry="2" fill="#3b82f6" opacity="0.6"/>
  
  <!-- Prato direito -->
  <path d="M 40 16 L 34 22 L 34 24 L 46 24 L 46 22 Z" fill="#60a5fa" opacity="0.8"/>
  <ellipse cx="40" cy="24" rx="6" ry="2" fill="#3b82f6" opacity="0.6"/>
  
  <!-- Cordas -->
  <line x1="8" y1="14" x2="8" y2="22" stroke="#3b82f6" stroke-width="1"/>
  <line x1="40" y1="14" x2="40" y2="22" stroke="#3b82f6" stroke-width="1"/>
  
  <!-- Topo -->
  <circle cx="24" cy="12" r="3" fill="url(#grad)"/>
  <path d="M 21 10 L 24 6 L 27 10 Z" fill="#60a5fa"/>
</svg>
